<?xml version="1.0" standalone="no"?>
<!DOCTYPE svg PUBLIC "-//W3C//DTD SVG 20010904//EN"
 "http://www.w3.org/TR/2001/REC-SVG-20010904/DTD/svg10.dtd">
<svg version="1.0" xmlns="http://www.w3.org/2000/svg"
 width="261.000000pt" height="261.000000pt" viewBox="0 0 261.000000 261.000000"
 preserveAspectRatio="xMidYMid meet">
<metadata>
Created by potrace 1.14, written by Peter Selinger 2001-2017
</metadata>
<g transform="translate(0.000000,261.000000) scale(0.100000,-0.100000)"
fill="#000000" stroke="none">
<path d="M10 1305 l0 -1295 1295 0 1295 0 0 1295 0 1295 -1295 0 -1295 0 0
-1295z m2271 402 c53 -35 79 -82 79 -140 0 -98 -69 -162 -175 -162 -185 0
-247 209 -90 306 45 28 142 26 186 -4z m-763 -422 c122 -29 227 -101 275 -190
21 -39 22 -52 25 -432 l3 -393 -171 0 -170 0 0 72 0 72 -50 -56 c-31 -35 -67
-63 -97 -76 -108 -46 -267 -37 -364 21 -167 100 -170 383 -5 494 64 43 125 60
279 78 139 17 189 32 206 63 17 33 13 51 -18 83 -25 25 -37 29 -83 29 -63 0
-114 -27 -124 -65 l-6 -25 -170 0 -170 0 7 33 c31 147 140 253 300 293 70 17
257 17 333 -1z m852 -505 l0 -510 -185 0 -185 0 0 510 0 510 185 0 185 0 0
-510z"/>
<path d="M1430 708 c-14 -5 -56 -16 -93 -24 -116 -24 -147 -49 -147 -118 0
-93 135 -117 220 -40 43 39 53 70 48 145 -3 45 -4 46 -28 37z"/>
</g>
</svg>
