<svg width="560" height="560" viewBox="0 0 560 560" fill="none" xmlns="http://www.w3.org/2000/svg">
<path d="M280 0C125.6 0 0 125.609 0 280C0 434.391 125.599 560 280 560C434.401 560 560 434.391 560 280C560 125.609 434.401 0 280 0ZM280 513.333C151.349 513.333 46.6667 408.667 46.6667 280C46.6667 151.333 151.349 46.6667 280 46.6667C408.651 46.6667 513.333 151.333 513.333 280C513.333 408.667 408.651 513.333 280 513.333ZM389.828 203.16L312.995 279.999L389.833 356.837C398.948 365.952 398.948 380.717 389.833 389.832C385.271 394.384 379.302 396.665 373.333 396.665C367.365 396.665 361.396 394.384 356.839 389.827L280 312.993L203.161 389.832C198.604 394.384 192.635 396.665 186.667 396.665C180.698 396.665 174.729 394.384 170.172 389.827C161.057 380.712 161.057 365.947 170.172 356.832L247.005 279.999L170.167 203.16C161.052 194.046 161.052 179.28 170.167 170.166C179.281 161.051 194.047 161.051 203.161 170.166L280 247.004L356.839 170.166C365.953 161.051 380.719 161.051 389.833 170.166C398.948 179.28 398.948 194.045 389.828 203.16Z" fill="#B85858"/>
</svg>
