<svg width="547" height="547" viewBox="0 0 547 547" fill="none" xmlns="http://www.w3.org/2000/svg">
<path d="M546.56 273.28C546.56 122.453 424.107 0 273.28 0C122.453 0 0 122.453 0 273.28C0 424.107 122.453 546.56 273.28 546.56C424.107 546.56 546.56 424.107 546.56 273.28ZM44.8 273.28C44.8 147.092 147.092 44.8 273.28 44.8C399.468 44.8 501.76 147.092 501.76 273.28C501.76 399.468 399.468 501.76 273.28 501.76C147.092 501.76 44.8 399.468 44.8 273.28Z" fill="#88C53A"/>
<path d="M415.832 189.028C407.368 179.789 392.748 179.789 383.517 188.26L239.639 324.555L164.238 249.091C155.007 239.852 140.388 239.852 131.923 249.091C122.692 258.33 122.692 272.962 131.923 281.434L222.71 373.071C227.326 377.69 233.482 380 238.87 380C244.259 380 250.409 377.69 255.031 373.839L414.297 222.139C424.296 212.9 424.296 198.269 415.832 189.03L415.832 189.028Z" fill="#88C53A"/>
</svg>
